<?xml version="1.0" encoding="UTF-8"?>
<svg width="145" height="123" viewBox="0 0 145 123" xmlns="http://www.w3.org/2000/svg" xmlns:xlink="http://www.w3.org/1999/xlink"><svg width="23" height="39" viewBox="0 0 23 39" id=".b-501px-slider__arrow_dir_next .b-501px-slider__arrow-icon"><defs><filter x="0%" y="0%" width="200%" height="200%" filterUnits="objectBoundingBox" id="aaa"><feOffset dy="1" in="SourceAlpha" result="shadowOffsetOuter1"/><feGaussianBlur stdDeviation="1.5" in="shadowOffsetOuter1" result="shadowBlurOuter1"/><feColorMatrix values="0 0 0 0 0 0 0 0 0 0 0 0 0 0 0 0 0 0 0.7 0" in="shadowBlurOuter1" result="shadowMatrixOuter1"/><feOffset dy="1" in="SourceAlpha" result="shadowOffsetOuter2"/><feGaussianBlur in="shadowOffsetOuter2" result="shadowBlurOuter2"/><feColorMatrix values="0 0 0 0 0 0 0 0 0 0 0 0 0 0 0 0 0 0 0.7 0" in="shadowBlurOuter2" result="shadowMatrixOuter2"/><feMerge><feMergeNode in="shadowMatrixOuter1"/><feMergeNode in="shadowMatrixOuter2"/><feMergeNode in="SourceGraphic"/></feMerge></filter></defs><path d="M2.46 34.646l15.968-16.218L2.46 2.203 3.742 1 21 18.43 3.742 35.924l-1.282-1.28z" fill="#fff" filter="url(#aaa)"/></svg><svg width="23" height="39" viewBox="0 0 23 39" id=".b-501px-slider__arrow_dir_prev .b-501px-slider__arrow-icon" x="76"><defs><filter x="0%" y="0%" width="200%" height="200%" filterUnits="objectBoundingBox" id="aba"><feOffset dy="1" in="SourceAlpha" result="shadowOffsetOuter1"/><feGaussianBlur stdDeviation="1.5" in="shadowOffsetOuter1" result="shadowBlurOuter1"/><feColorMatrix values="0 0 0 0 0 0 0 0 0 0 0 0 0 0 0 0 0 0 0.7 0" in="shadowBlurOuter1" result="shadowMatrixOuter1"/><feOffset dy="1" in="SourceAlpha" result="shadowOffsetOuter2"/><feGaussianBlur in="shadowOffsetOuter2" result="shadowBlurOuter2"/><feColorMatrix values="0 0 0 0 0 0 0 0 0 0 0 0 0 0 0 0 0 0 0.7 0" in="shadowBlurOuter2" result="shadowMatrixOuter2"/><feMerge><feMergeNode in="shadowMatrixOuter1"/><feMergeNode in="shadowMatrixOuter2"/><feMergeNode in="SourceGraphic"/></feMerge></filter></defs><path d="M19.258 35.925l1.282-1.28L4.572 18.43 20.54 2.203 19.258 1 2 18.43l17.258 17.495z" fill="#fff" filter="url(#aba)"/></svg><svg width="23" height="39" viewBox="0 0 23 39" id=".b-page_tablet_no .b-501px-slider_preview-disabled_yes .b-501px-slider__arrow_dir_prev:hover .b-501px-slider__arrow-icon" x="23"><path d="M19.758 35.925l1.282-1.28L5.072 18.43 21.04 2.203 19.758 1 2.5 18.43l17.258 17.495z"/></svg><svg width="8" height="8" viewBox="0 0 8 8" id=".button__icon_8_down" x="131" y="14"><path d="M7.194 2L3.996 5.195.8 2l-.8.8 3.996 3.994L7.99 2.8z"/></svg><svg width="13" height="36" viewBox="0 0 13 36" id=".carousel__control_side_left:after" x="13" y="63"><path d="M.6 17.996l.008-.004L10.6.684l1.742.5L2.634 18l9.708 16.816-1.74.5L.607 18.008.6 18.004.602 18 .6 17.996z" fill="#fff"/></svg><svg width="13" height="36" viewBox="0 0 13 36" id=".carousel__control_side_right:after" y="63"><path d="M12.432 17.992l-.008-.004L2.43.68l-1.74.5 9.708 16.816L.69 34.812l1.74.5 9.994-17.308.008-.004-.002-.004.002-.004z" fill="#fff"/></svg><svg width="27" height="23" viewBox="0 0 27 23" id=".cbir-icon_theme_big" x="99" y="32"><path fill-rule="evenodd" d="M17.5 21H2V6h5.35l2.594-4h7.112l2.595 4H25v15h-1.5l-4.715-4.715C19.55 15.22 20 13.912 20 12.5 20 8.91 17.09 6 13.5 6S7 8.91 7 12.5 9.91 19 13.5 19c1.412 0 2.72-.45 3.785-1.215l2.465 2.465L22.5 23H27V4h-6.333L18 0H9L6.333 4H0v19h19.5l-2-2zm-4-4c2.485 0 4.5-2.015 4.5-4.5S15.985 8 13.5 8 9 10.015 9 12.5s2.015 4.5 4.5 4.5z"/></svg><svg width="16" height="16" viewBox="0 0 16 16" id=".cbir-icon_theme_black,.cbir-icon_theme_black-outlined" x="106" y="99"><path d="M12.6 15H1.505C.667 15 0 14.326 0 13.494V4.996c0-.55.428-1.118.956-1.27L3.5 3C6 1 5 1 8 1s2 0 4.5 2l2.544.727c.527.15.956.72.956 1.27v8.497c0 .572-.317 1.067-.784 1.322l-3.412-3.412c.44-.695.696-1.52.696-2.404 0-2.485-2.015-4.5-4.5-4.5S3.5 6.515 3.5 9s2.015 4.5 4.5 4.5c.884 0 1.71-.255 2.404-.696L12.6 15zM8 11.5c1.38 0 2.5-1.12 2.5-2.5S9.38 6.5 8 6.5 5.5 7.62 5.5 9s1.12 2.5 2.5 2.5z"/></svg><svg width="16" height="16" viewBox="0 0 16 16" id=".cbir-icon_theme_black-outlined" x="82" y="39"><path d="M11.446 11.032l3.55 3.55-1.413 1.415-3.55-3.55a4 4 0 1 1 1.414-1.414zM8 11a2 2 0 1 0 0-4 2 2 0 0 0 0 4zm8 1.8V3h-3.5l-2-2h-5l-2 2H0v12h6.3l-2-2H2V5h2.2l2-2h3.6l2 2H14v5.8l2 2z"/></svg><svg width="19" height="18" viewBox="0 0 19 18" id=".cbir-icon_theme_default" x="87" y="99"><path fill-rule="evenodd" clip-rule="evenodd" d="M19 13.998l-2-2v-6c0-.55-.447-1-1-1h-2.134C12.524 3.37 12.268 2 11 2H8C6.734 2 6.48 3.37 5.135 5H3c-.55 0-1 .45-1 1v7c0 .553.448 1 1 1h2l2 2H2.003c-1.104 0-2-.897-2-2V5c0-1.103.896-2 2-2h2.25l.75-1c1.046-1.413 1.57-2 3-2h3c1.43 0 1.953.587 3 2l.75 1H17c1.104 0 2 .897 2 2v9zm-9.5-9C11.986 5 14 7.015 14 9.5c0 .88-.263 1.694-.698 2.387l4.405 4.405-1.414 1.414-4.405-4.404c-.693.436-1.508.698-2.387.698-2.482 0-4.496-2.015-4.496-4.5 0-2.484 2.014-4.5 4.5-4.5zm0 7c1.382 0 2.5-1.12 2.5-2.5s-1.118-2.5-2.5-2.5C8.12 7 7 8.12 7 9.5S8.12 12 9.5 12z"/></svg><svg width="14" height="14" viewBox="0 0 14 14" id=".cbir-intent__close" x="131"><path d="M14 .7l-.7-.7L7 6.3.7 0 0 .7 6.3 7 0 13.3l.7.7L7 7.7l6.3 6.3.7-.7L7.7 7z"/></svg><svg width="22" height="22" viewBox="0 0 22 22" id=".cbir-panel__close-icon" x="43" y="99"><path d="M22 1.1L20.9 0 11 9.898 1.1 0 0 1.1 9.9 11 0 20.898 1.1 22l9.9-9.9 9.9 9.9 1.1-1.102L12.1 11 22 1.1z"/></svg><svg width="16" height="16" viewBox="0 0 16 16" id=".complain2_icon-theme_outlined.complain2_color_black.complain2_layout_button .button2__icon,.complain2_icon-theme_outlined.complain2_color_black.complain2_layout_icon .button2__icon" x="115" y="82"><path fill-rule="evenodd" d="M8 16c4.418 0 8-3.582 8-8s-3.582-8-8-8-8 3.582-8 8 3.582 8 8 8zm0-1.8c3.424 0 6.2-2.776 6.2-6.2 0-3.424-2.776-6.2-6.2-6.2-3.424 0-6.2 2.776-6.2 6.2 0 3.424 2.776 6.2 6.2 6.2zM7 11c0-.552.444-1 1-1 .552 0 1 .444 1 1 0 .552-.444 1-1 1-.552 0-1-.444-1-1zm.058-6.036c-.032-.532.386-.964.92-.964h.045c.54 0 .95.426.92.964l-.2 3.34C8.718 8.69 8.388 9 8 9c-.387 0-.72-.313-.742-.695l-.2-3.34z"/></svg><svg width="37" height="24" viewBox="0 0 37 24" id=".disk-logo__icon.disk-logo__icon_theme_gray" y="39"><g stroke-width="2" stroke="#000" fill="none" fill-rule="evenodd"><path d="M28.233 6.724c-1.48-.185-2.84-.947-3.796-2.057-2.258-2.52-5.877-3.733-9.425-2.81-3.536.915-6.08 3.804-6.725 7.076-.275 1.34-1.038 2.67-2.15 3.512M35.82 9.984c-.967-3.502-9.508-4.334-19.064-1.85C7.2 10.61.236 15.464 1.203 18.967c.67 2.427 4.98 3.572 10.75 3.225-.238-.207-.393-.45-.477-.727-.525-1.896 2.975-3.86 7.573-5.052 4.61-1.19 8.61-1.132 9.124.73.083.288.06.577-.036.866 5.195-2.52 8.35-5.596 7.68-8.024zM11.954 22.18c1.302 1.11 4.802.993 8.696-.024 3.894-1.005 6.964-2.59 7.502-4.184"/></g></svg><svg width="22" height="22" viewBox="0 0 22 22" id=".fullscreen-switcher_theme_icon .button2__icon.icon_fullscreen" x="21" y="99"><path fill="#fff" d="M19.4 1.5L1.5 19.4V12H0v10h10v-1.5H2.6L20.5 2.6V10H22V0H12v1.5h7.4z"/></svg><svg width="20" height="27" viewBox="0 0 20 27" id=".head-filter_type_family .head-filter__icon" x="99" y="55"><path d="M9.805 20.08s1.465 0 2.196 1.714l1.65 3.087c.34.737 1.23 1.07 1.975.72.748-.35 1.065-1.23.718-1.973l-1.528-2.833c-.762-1.6-.762-1.976-.762-3.978v-1.94s0-1.956 1.575-3.285l2.64-2.64c.576-.576.584-1.53 0-2.112-.586-.587-1.528-.582-2.112.002L13.06 9.935c-1.13 1.144-2.82 1.144-2.82 1.144H8.863s-1.69 0-2.82-1.146L2.947 6.84c-.584-.585-1.526-.59-2.113-.003C.25 7.42.26 8.373.836 8.95l2.64 2.64c1.574 1.328 1.574 3.284 1.574 3.284v1.94c0 2.002 0 2.38-.762 3.978l-1.53 2.833c-.346.744-.03 1.625.72 1.975.742.347 1.63.015 1.973-.72l1.65-3.086c.73-1.713 2.197-1.713 2.197-1.713h.51zm-4.755-15c0 2.486 2.015 4.5 4.5 4.5s4.5-2.014 4.5-4.5-2.015-4.5-4.5-4.5-4.5 2.016-4.5 4.5z"/></svg><svg width="21" height="24" viewBox="0 0 21 24" id=".head-filter_type_moderate .head-filter__icon" y="99"><path d="M10.505 24C.735 20.04.055 12.776.01 6.008L0 3c9.107 0 9.082-1.796 10.5-3 1.534 1.204 1.54 3 10.5 3v3.008c-.05 6.77-.73 14.033-10.494 17.992zm0-2.2c-7.31-3.217-8.46-8.82-8.498-14.32L2 5c5.372 0 7.75-1.422 8.5-2.4.74.978 3.245 2.4 8.5 2.4v2.48c-.04 5.5-1.19 11.103-8.496 14.32zM6.1 9.9L5 11.775 10.177 17l6.136-8.267L14.983 7l-5.03 6.878L6.1 9.9z" fill-rule="evenodd"/></svg><svg width="21" height="24" viewBox="0 0 21 24" id=".head-filter_type_unlimited .head-filter__icon" x="37" y="39"><path d="M10.505 24C.735 20.04.055 12.776.01 6.008L0 3c9.107 0 9.082-1.796 10.5-3 1.534 1.204 1.54 3 10.5 3v3.008c-.05 6.77-.73 14.033-10.494 17.992zm6.24-19.096L13 9h5L7.5 18l3.75-7.5H7.5l4.568-6.74c-.79-.385-1.297-.802-1.568-1.16C9.75 3.578 7.372 5 2 5l.007 2.48c.038 5.5 1.188 11.103 8.497 14.32C17.81 18.583 18.96 12.98 19 7.48V5c-.817 0-1.567-.034-2.254-.096z"/></svg><svg width="16" height="16" viewBox="0 0 16 16" id=".icon_type_share.icon_color_black" x="99" y="82"><path d="M12 8v6H4V8H2v8h12V8h-2zm-5 4h2V6h3L8 0 4 6h3v6z" fill-rule="evenodd"/></svg><svg width="22" height="22" viewBox="0 0 22 22" id=".pane2__close_color_white .pane2__close-icon" x="65" y="99"><path d="M22 1.1L20.9 0 11 9.898 1.1 0 0 1.1 9.9 11 0 20.898 1.1 22l9.9-9.9 9.9 9.9 1.1-1.102L12.1 11 22 1.1z" fill="#fff"/></svg><svg width="30" height="39" viewBox="0 0 30 39" id=".popup_filter_unlimited .popup__content-icon" x="46"><path fill="#FF972B" d="M23.57 4C18.84 4 15 2.392 15 0c0 2.392-3.837 4-8.572 4H0v17.67C0 30.33 15 39 15 39s15-8.67 15-17.33V4h-6.43zM17 31h-4v-4h4v4zm0-7h-4V10h4v14z"/></svg><svg width="19" height="35" viewBox="0 0 19 35" id=".preview2__arrow_side_left .preview2__arrow-icon" x="45" y="63"><path fill="#fff" d="M17.758 34.925l1.282-1.28L3.072 17.43 19.04 1.203 17.758 0 .5 17.43l17.258 17.495z"/></svg><svg width="19" height="35" viewBox="0 0 19 35" id=".preview2__arrow_side_right .preview2__arrow-icon" x="26" y="63"><path fill="#fff" d="M1.242 34.925l-1.282-1.28L15.928 17.43-.04 1.203 1.242 0 18.5 17.43 1.242 34.924z"/></svg><svg width="10" height="17" viewBox="0 0 10 17" id=".similar__more-arrow" x="119" y="55"><path fill="#FFF" fill-rule="evenodd" clip-rule="evenodd" d="M1.43 0L0 1.416 7.144 8.5 0 15.584 1.43 17 10 8.5z"/></svg><svg width="32" height="32" viewBox="0 0 32 32" id=".slideshow-controls__action_state_play:after" x="99"><path d="M5,31 L32,16 L5,1 L5,31 Z" fill="#fff"/></svg><svg width="32" height="32" viewBox="0 0 32 32" id=".slideshow-controls__action_state_stop:after" x="64" y="63"><path d="M4,28 L28,28 L28,4 L4,4 L4,28 Z" fill="#fff"/></svg><svg width="24" height="24" viewBox="0 0 24 24" id=".slideshow-controls__close:after" x="58" y="39"><path d="M13.4142136,12 L24,22.5857864 L22.5857864,24 L12,13.4142136 L1.41421356,24 L0,22.5857864 L10.5857864,12 L2.22044605e-16,1.41421356 L1.41421356,-6.66133815e-16 L12,10.5857864 L22.5857864,-1.77635684e-15 L24,1.41421356 L13.4142136,12 Z" fill="#fff"/></svg></svg>